<?xml version="1.0" standalone="no"?>
<!DOCTYPE svg PUBLIC "-//W3C//DTD SVG 20010904//EN"
 "http://www.w3.org/TR/2001/REC-SVG-20010904/DTD/svg10.dtd">
<svg version="1.0" xmlns="http://www.w3.org/2000/svg"
 width="128.000000pt" height="128.000000pt" viewBox="0 0 128.000000 128.000000"
 preserveAspectRatio="xMidYMid meet">
<metadata>
Created by potrace 1.11, written by Peter Selinger 2001-2013
</metadata>
<g transform="translate(0.000000,128.000000) scale(0.100000,-0.100000)"
fill="#000000" stroke="none">
<path d="M63 1260 c-65 -39 -63 -23 -63 -622 0 -521 1 -544 20 -575 39 -65 23
-63 620 -63 597 0 581 -2 620 63 19 31 20 54 20 575 0 599 2 583 -63 622 -31
19 -54 20 -577 20 -523 0 -546 -1 -577 -20z m151 -307 c3 -16 19 -115 36 -222
17 -107 32 -196 34 -198 4 -4 26 76 77 275 19 73 37 122 44 122 13 0 26 -42
87 -279 25 -98 33 -119 39 -100 4 13 20 114 34 224 15 110 28 201 30 203 2 2
16 2 32 0 l29 -3 -53 -340 c-30 -186 -56 -341 -58 -343 -18 -18 -37 32 -84
217 -30 116 -57 211 -60 211 -3 0 -26 -75 -50 -167 -65 -248 -70 -263 -86
-263 -8 0 -17 10 -20 23 -4 21 -105 654 -105 663 0 2 15 4 34 4 29 0 35 -4 40
-27z m936 -8 l0 -35 -160 0 -160 0 0 -105 0 -105 130 0 130 0 0 -35 0 -35
-130 0 -130 0 0 -170 0 -170 -35 0 -35 0 0 345 0 345 195 0 195 0 0 -35z"/>
</g>
</svg>
